HIERARCHY
ROOT root
{
	OFFSET 0.000000 0.000000 0.000000
	CHANNELS 6 Xposition Yposition Zposition Zrotation Yrotation Xrotation
	JOINT lhip
	{
		OFFSET 0.058581 -0.082280 -0.017664
		CHANNELS 3 Zrotation Yrotation Xrotation
		JOINT lknee
		{
			OFFSET 0.043451 -0.386469 0.008037
			CHANNELS 3 Zrotation Yrotation Xrotation
			JOINT lankle
			{
				OFFSET -0.014790 -0.426874 -0.037428
				CHANNELS 3 Zrotation Yrotation Xrotation
				JOINT ltoe
				{
					OFFSET 0.041054 -0.060286 0.122042
					CHANNELS 3 Zrotation Yrotation Xrotation
					End Site
					{
						OFFSET 0.000000 0.000000 0.000000
					}
				}
			}
		}
	}
	JOINT rhip
	{
		OFFSET -0.060310 -0.090513 -0.013543
		CHANNELS 3 Zrotation Yrotation Xrotation
		JOINT rknee
		{
			OFFSET -0.043257 -0.383688 -0.004843
			CHANNELS 3 Zrotation Yrotation Xrotation
			JOINT rankle
			{
				OFFSET 0.019056 -0.420046 -0.034562
				CHANNELS 3 Zrotation Yrotation Xrotation
				JOINT rtoe
				{
					OFFSET -0.034840 -0.062106 0.130323
					CHANNELS 3 Zrotation Yrotation Xrotation
					End Site
					{
						OFFSET 0.000000 0.000000 0.000000
					}
				}
			}
		}
	}
	JOINT lowerback
	{
		OFFSET 0.004439 0.124404 -0.038385
		CHANNELS 3 Zrotation Yrotation Xrotation
		JOINT upperback
		{
			OFFSET 0.004488 0.137956 0.026820
			CHANNELS 3 Zrotation Yrotation Xrotation
			JOINT chest
			{
				OFFSET -0.002265 0.056032 0.002855
				CHANNELS 3 Zrotation Yrotation Xrotation
				JOINT lowerneck
				{
					OFFSET -0.013390 0.211636 -0.033468
					CHANNELS 3 Zrotation Yrotation Xrotation
					JOINT upperneck
					{
						OFFSET 0.010113 0.088937 0.050410
						CHANNELS 3 Zrotation Yrotation Xrotation
						End Site
						{
							OFFSET 0.000000 0.000000 0.000000
						}
					}
				}
				JOINT lclavicle
				{
					OFFSET 0.071702 0.114000 -0.018898
					CHANNELS 3 Zrotation Yrotation Xrotation
					JOINT lshoulder
					{
						OFFSET 0.122921 0.045205 -0.019046
						CHANNELS 3 Zrotation Yrotation Xrotation
						JOINT lelbow
						{
							OFFSET 0.255332 -0.015649 -0.022946
							CHANNELS 3 Zrotation Yrotation Xrotation
							JOINT lwrist
							{
								OFFSET 0.265709 0.012698 -0.007375
								CHANNELS 3 Zrotation Yrotation Xrotation
								End Site
								{
									OFFSET 0.000000 0.000000 0.000000
								}
							}
						}
					}
				}
				JOINT rclavicle
				{
					OFFSET -0.082954 0.112472 -0.023707
					CHANNELS 3 Zrotation Yrotation Xrotation
					JOINT rshoulder
					{
						OFFSET -0.113228 0.046853 -0.008472
						CHANNELS 3 Zrotation Yrotation Xrotation
						JOINT relbow
						{
							OFFSET -0.260127 -0.014369 -0.031269
							CHANNELS 3 Zrotation Yrotation Xrotation
							JOINT rwrist
							{
								OFFSET -0.269108 0.006794 -0.006027
								CHANNELS 3 Zrotation Yrotation Xrotation
								End Site
								{
									OFFSET 0.000000 0.000000 0.000000
								}
							}
						}
					}
				}
			}
		}
	}
}
MOTION
Frames: 16
Frame Time: 0.033333
2.058761 0.238925 1.021040 -90.612164 1.243874 109.714351 -4.515969 -6.749701 -19.321291 -4.615306 25.494685 -10.125399 16.294291 27.407717 -16.066926 0.000000 -0.000000 0.000000 7.530440 -3.715336 -13.404059 0.196309 -19.167102 31.332590 1.981083 -22.738855 35.987948 0.000000 -0.000000 0.000000 -11.144801 4.102696 -11.264161 2.570132 0.785936 0.922926 2.376884 -0.366149 -6.487704 3.058582 -8.845295 7.119206 6.765403 2.877283 -3.494434 -19.370015 10.954656 3.914427 -57.033039 -8.014476 6.741021 7.379600 -14.491927 -0.168270 1.893276 1.775097 -0.871018 17.946217 -6.313669 -0.355376 59.841051 7.080413 23.081830 2.391870 1.351546 14.294495 8.841925 -6.128798 0.909879 
2.061649 0.237906 1.020037 -90.060487 1.627220 109.430200 -4.158153 -6.752957 -19.326196 -4.399671 24.918997 -9.887357 16.274323 27.449500 -15.499960 0.000000 -0.000000 0.000000 7.951477 -4.034370 -13.481121 0.396599 -18.961383 31.272210 1.129820 -22.970825 37.761145 0.000000 -0.000000 0.000000 -9.588826 3.962973 -9.331339 1.733945 0.797744 -2.730381 2.206627 -0.563083 -4.809283 1.884815 -9.399878 8.287544 7.238928 3.947258 -3.400658 -18.582929 10.836487 3.901692 -56.899691 -7.766994 6.633708 6.682944 -15.255421 1.952297 0.014546 1.849043 -2.883797 16.986458 -6.509279 -0.561817 60.413899 6.507077 22.790614 2.625721 0.192312 16.203907 9.363107 -7.219940 2.614249 
2.063347 0.238071 1.019558 -90.152405 1.636161 109.208484 -4.131281 -6.920562 -19.292965 -4.286849 24.828338 -9.755086 16.282924 27.722710 -15.102380 0.000000 -0.000000 0.000000 7.754490 -3.741545 -13.631240 0.350207 -18.993305 31.699332 0.892943 -23.061019 38.917860 0.000000 -0.000000 0.000000 -9.379498 3.818091 -9.429022 1.794455 0.785671 -3.155477 2.046859 -0.539653 -4.469108 1.576614 -8.990239 9.117093 7.090201 3.795877 -2.650494 -17.948016 10.933545 4.073665 -56.648196 -7.901079 6.810196 5.956715 -15.521214 3.002693 -2.236623 1.720201 -3.549236 16.959613 -6.769040 -0.400820 60.261003 6.536998 23.023679 2.653780 -0.869933 17.860660 11.181410 -8.067718 3.613769 
2.063273 0.238243 1.019177 -89.851917 1.509844 108.841724 -4.230531 -6.811841 -19.114000 -4.306079 24.209419 -9.326260 16.282264 27.985978 -15.869713 0.000000 -0.000000 0.000000 7.499795 -4.407365 -13.694391 0.807907 -18.425204 32.337297 2.234711 -22.462670 37.894625 0.000000 -0.000000 0.000000 -9.333450 3.704798 -10.062764 2.034464 0.476644 -2.539821 1.911421 -0.676555 -4.615696 1.255697 -8.138113 10.376507 6.784295 3.752204 -2.330568 -17.575536 11.097298 4.239184 -55.921490 -7.745839 7.018232 5.114193 -15.803451 4.384095 -6.176880 2.068465 -5.581847 17.024442 -7.238445 -0.358799 59.900813 6.144548 23.274412 2.571983 -1.422393 19.522921 14.324270 -9.029172 3.453289 
2.062642 0.238118 1.018561 -89.529523 1.298608 108.551719 -4.309110 -7.157727 -18.780682 -4.434987 24.164289 -9.347004 16.462563 27.927654 -15.567550 0.000000 -0.000000 0.000000 7.256926 -4.234192 -13.285927 0.497907 -18.789561 32.214857 1.604270 -23.336779 40.498681 0.000000 -0.000000 0.000000 -9.313963 3.575029 -10.279371 2.134775 0.336325 -2.414367 1.787275 -0.855875 -4.444432 0.849712 -8.093557 11.026044 6.537994 3.928769 -2.250619 -17.127696 11.183500 4.728968 -55.798544 -7.794133 7.263814 4.825260 -15.649393 4.839360 -8.474068 1.777035 -6.328855 16.980002 -7.750735 -0.574156 59.822974 5.948279 23.689845 2.599596 -1.744814 20.121746 16.646509 -9.376772 3.263309 
2.061954 0.238026 1.018005 -89.228541 1.185569 108.344808 -4.309890 -7.306854 -18.573060 -4.647768 24.147292 -9.312011 16.427040 27.885199 -15.553109 0.000000 -0.000000 0.000000 7.113039 -3.946904 -13.184940 0.680204 -18.762956 32.411328 1.717441 -23.386679 40.543534 0.000000 -0.000000 0.000000 -9.215120 3.422162 -10.470359 2.322756 0.381363 -2.695503 1.771641 -1.201151 -4.218824 0.249016 -8.178633 12.291850 5.874220 4.107243 -2.279290 -16.681514 11.527794 5.262943 -55.677154 -7.593277 7.465352 4.303160 -15.523652 6.107041 -12.015079 1.931243 -6.952169 16.593002 -8.272010 -0.620096 59.691530 5.424904 24.344304 2.982682 -1.626638 21.212248 20.096066 -9.730142 2.064196 
2.061175 0.237546 1.017046 -88.838539 1.078357 108.343409 -4.496475 -6.938701 -18.663858 -4.687791 23.851276 -9.080988 16.092870 27.457127 -15.884185 0.000000 -0.000000 0.000000 7.026835 -4.383435 -13.467442 1.064807 -18.511400 32.854992 4.072974 -22.209968 36.582480 0.000000 -0.000000 0.000000 -8.871125 3.294412 -10.423731 2.377628 0.183549 -3.396392 1.712202 -1.504455 -3.981585 -0.234585 -7.615215 13.431142 5.139472 3.881354 -2.535045 -16.446840 11.824722 5.236381 -55.144635 -6.821613 7.501925 3.124876 -15.209583 7.530258 -15.709154 2.259628 -7.023535 16.422839 -8.837502 -0.930713 59.009650 4.803323 24.274328 3.906700 -1.083193 22.563656 22.851184 -10.473960 2.430575 
2.059697 0.236927 1.015586 -88.814438 0.556884 108.289917 -5.072095 -7.349351 -18.340578 -4.726368 23.544741 -9.463996 16.631043 27.938637 -15.432916 0.000000 -0.000000 0.000000 6.574966 -3.926674 -13.227426 0.768388 -18.532418 32.435388 1.696005 -23.478065 41.213919 0.000000 -0.000000 0.000000 -9.000136 3.193242 -10.117244 2.238281 0.336026 -4.643140 1.728891 -1.875239 -3.553211 -1.358651 -8.129178 14.593784 4.954630 4.431294 -2.588990 -16.265015 12.334518 5.796174 -54.410006 -6.415491 7.571302 1.807475 -14.910261 9.311769 -19.371794 1.706292 -7.649231 16.176700 -9.632345 -1.106009 58.336697 4.018380 24.945188 5.143263 -0.006732 23.777668 27.088637 -9.787456 -0.540210 
2.056475 0.236331 1.014464 -88.076114 0.255374 107.546873 -5.522026 -6.914379 -17.346586 -4.877250 22.790030 -9.314456 16.145585 27.577270 -16.154372 0.000000 -0.000000 0.000000 6.284170 -4.793030 -12.245807 1.191649 -18.662568 32.465475 4.009081 -22.255181 37.064693 0.000000 -0.000000 0.000000 -8.961120 3.145989 -10.962238 2.535589 -0.265151 -2.334785 1.594556 -2.020824 -4.291267 -1.148691 -7.267746 15.031329 4.278497 3.780337 -2.799288 -16.512564 11.581435 6.114468 -53.680967 -5.376565 7.870917 1.000547 -14.999312 10.839935 -24.167947 1.145887 -7.603604 16.504764 -9.296710 -0.911013 57.100760 3.370026 24.436125 6.198573 1.121082 24.145512 31.403135 -9.220056 -3.022559 
2.053121 0.235497 1.013154 -87.803674 -0.285989 107.100748 -6.118382 -7.044315 -16.622738 -5.043380 22.414907 -9.444890 16.664016 27.669296 -15.989471 0.000000 -0.000000 0.000000 5.741082 -4.874499 -11.624432 1.337092 -18.570496 32.414481 3.621964 -22.866532 37.667039 0.000000 -0.000000 0.000000 -9.121430 3.090775 -11.045174 2.549198 -0.267549 -1.706096 1.542744 -2.266084 -4.385834 -1.529582 -7.582609 15.276007 3.906602 4.106076 -3.280729 -16.953683 11.760907 6.580419 -52.294446 -4.774129 8.381375 -0.541693 -15.106129 13.523630 -27.967541 0.919154 -7.612841 16.810650 -9.854871 -1.102224 55.923073 2.636284 24.642561 7.447829 2.134344 24.566504 35.398302 -8.343201 -5.633091 
2.051841 0.235479 1.012036 -87.777898 -0.560961 107.202435 -6.192382 -7.567508 -16.978370 -4.995229 22.721603 -8.945378 17.049689 28.068426 -16.094538 0.000000 -0.000000 0.000000 5.536826 -4.494664 -11.820670 1.282936 -18.509100 32.597863 3.300611 -22.945311 38.435817 0.000000 -0.000000 0.000000 -9.093481 3.083370 -11.611747 2.546339 -0.301698 -1.453414 1.297561 -2.274250 -4.203881 -1.462970 -7.356066 15.712146 3.831030 4.368493 -3.361148 -17.391591 11.400441 7.354914 -51.195398 -4.231668 8.799114 -1.422127 -15.685665 14.793588 -31.073332 0.665017 -7.257521 17.076295 -9.795038 -0.536422 55.397575 2.341182 24.697234 8.042976 2.803310 24.335367 38.216150 -6.850605 -8.027331 
2.050538 0.236102 1.010843 -87.832560 -0.860303 107.235799 -6.370648 -7.778385 -17.213226 -4.967931 22.623343 -8.465460 17.209700 28.361697 -16.156159 0.000000 -0.000000 0.000000 5.343415 -4.269523 -11.967926 1.185592 -18.343563 32.859991 3.352506 -22.921891 38.532754 0.000000 -0.000000 0.000000 -9.208252 3.156426 -11.827124 2.547116 -0.261192 -1.274478 1.144440 -2.368016 -4.396834 -1.250835 -7.227968 16.139418 3.745786 4.479292 -3.262459 -17.670061 11.053704 7.710688 -50.412577 -3.615681 9.232448 -2.341491 -15.662117 16.647574 -33.338946 0.295634 -6.260155 17.170278 -9.642234 -0.228987 55.358288 2.030374 24.686180 8.265742 2.589449 24.175697 40.398049 -6.318957 -9.628310 
2.047792 0.236083 1.009557 -87.015779 -0.965876 107.124186 -6.098040 -8.350921 -17.283803 -5.051789 22.221347 -7.853612 17.629372 28.466178 -16.361743 0.000000 -0.000000 0.000000 5.450822 -4.295697 -11.531064 1.669233 -18.509923 32.266782 3.004390 -23.371423 38.967388 0.000000 -0.000000 0.000000 -9.310550 3.030605 -13.280761 2.907888 -0.792433 0.972957 1.033754 -2.577795 -4.199509 -1.206954 -7.286787 15.473629 3.722364 4.733143 -4.023763 -18.161646 10.421939 8.581633 -49.665307 -4.161954 9.644827 -2.812467 -15.976152 17.276815 -35.296953 0.705870 -7.201464 17.607654 -9.617997 -0.389732 55.094593 2.490376 25.177088 8.290487 2.980517 24.227006 42.070977 -6.257769 -10.709271 
2.046102 0.236854 1.008752 -87.025568 -1.092941 107.470791 -5.910228 -8.684443 -17.742633 -5.196355 22.627958 -7.640651 17.834168 28.582706 -16.440520 0.000000 -0.000000 0.000000 5.488202 -4.057527 -11.899597 1.546060 -18.573009 32.313128 2.846842 -23.541722 39.206049 0.000000 -0.000000 0.000000 -9.383678 3.069333 -13.045303 2.868517 -0.697856 -0.026636 0.977364 -2.769133 -4.054574 -1.267922 -7.472514 15.812847 3.856181 4.867515 -3.892444 -18.030124 10.055522 9.601867 -49.511867 -4.009469 9.680343 -3.162541 -16.069152 18.403330 -37.596876 0.844938 -7.143260 17.597829 -9.601138 -0.131715 55.384823 2.345830 25.237506 8.131641 3.214330 24.634350 44.122720 -6.497984 -11.441673 
2.044823 0.237604 1.007936 -86.827619 -1.241341 107.890764 -5.753948 -8.992954 -18.372676 -5.258047 23.001343 -7.238222 18.053747 28.277642 -16.621935 0.000000 -0.000000 0.000000 5.705484 -3.695876 -12.523954 1.067940 -18.819480 32.634287 2.762507 -23.693867 39.244272 0.000000 -0.000000 0.000000 -9.546109 2.840333 -13.534350 3.052132 -0.783846 0.160286 1.021187 -3.153671 -4.009758 -1.246976 -7.468431 15.505821 3.580212 5.180166 -3.736595 -17.744891 9.245362 11.765217 -50.300202 -4.249511 9.050494 -2.427386 -17.150919 18.024536 -39.523372 0.851858 -7.790916 17.261889 -8.995502 0.267160 56.127476 2.539193 25.662740 7.524835 3.619027 24.658766 46.537725 -6.235296 -12.579902 
2.042390 0.239117 1.007597 -87.457806 -1.571419 107.603269 -6.103241 -8.883474 -17.701190 -5.566889 23.187253 -7.712687 18.192609 28.510899 -16.575922 0.000000 -0.000000 0.000000 5.347377 -3.305813 -12.173790 0.502549 -19.131136 32.796042 2.610852 -23.689100 39.752898 0.000000 -0.000000 0.000000 -10.100737 2.980532 -13.475119 3.094504 -0.588400 0.521942 1.237499 -3.124309 -4.242404 -1.141268 -7.172918 16.020124 3.571588 5.117481 -3.615323 -17.456767 8.866677 11.731114 -50.969553 -3.954600 9.181790 -2.125632 -17.258384 18.342301 -42.461520 1.018217 -9.118088 16.878930 -8.561138 0.424718 56.919752 2.604307 25.914928 7.088211 3.881008 24.839694 48.895172 -6.611563 -14.187068 
